<svg width="24" height="24" viewBox="0 0 24 24" fill="none" xmlns="http://www.w3.org/2000/svg">
<mask id="mask0_807_1357" style="mask-type:alpha" maskUnits="userSpaceOnUse" x="0" y="0" width="24" height="24">
<rect width="24" height="24" fill="#D9D9D9"/>
</mask>
<g mask="url(#mask0_807_1357)">
<path d="M5.9249 16.875C6.8249 16.2417 7.7874 15.7708 8.8124 15.4625C9.8374 15.1542 10.8999 15 11.9999 15C13.0999 15 14.1624 15.1542 15.1874 15.4625C16.2124 15.7708 17.1749 16.2417 18.0749 16.875C18.6582 16.1917 19.0916 15.4333 19.3749 14.6C19.6582 13.7667 19.7999 12.9 19.7999 12C19.7999 9.83875 19.0397 7.99843 17.5192 6.47905C15.9987 4.95968 14.157 4.2 11.9942 4.2C9.83132 4.2 7.99157 4.95968 6.4749 6.47905C4.95824 7.99843 4.1999 9.83875 4.1999 12C4.1999 12.9 4.34157 13.7667 4.6249 14.6C4.90824 15.4333 5.34157 16.1917 5.9249 16.875ZM11.9999 13.8C10.9999 13.8 10.1499 13.45 9.4499 12.75C8.7499 12.05 8.3999 11.2 8.3999 10.2C8.3999 9.2 8.7499 8.35 9.4499 7.65C10.1499 6.95 10.9999 6.6 11.9999 6.6C12.9999 6.6 13.8499 6.95 14.5499 7.65C15.2499 8.35 15.5999 9.2 15.5999 10.2C15.5999 11.2 15.2499 12.05 14.5499 12.75C13.8499 13.45 12.9999 13.8 11.9999 13.8ZM12.0068 21.6C10.6855 21.6 9.44157 21.35 8.2749 20.85C7.10824 20.35 6.0874 19.6625 5.2124 18.7875C4.3374 17.9125 3.6499 16.892 3.1499 15.7261C2.6499 14.5601 2.3999 13.3142 2.3999 11.9886C2.3999 10.6629 2.6499 9.42084 3.1499 8.2625C3.6499 7.10417 4.3374 6.0875 5.2124 5.2125C6.0874 4.3375 7.10789 3.65 8.27385 3.15C9.43984 2.65 10.6857 2.4 12.0114 2.4C13.3371 2.4 14.5791 2.65 15.7374 3.15C16.8957 3.65 17.9124 4.3375 18.7874 5.2125C19.6624 6.0875 20.3499 7.10603 20.8499 8.2681C21.3499 9.43019 21.5999 10.6719 21.5999 11.9931C21.5999 13.3144 21.3499 14.5583 20.8499 15.725C20.3499 16.8917 19.6624 17.9125 18.7874 18.7875C17.9124 19.6625 16.8939 20.35 15.7318 20.85C14.5697 21.35 13.3281 21.6 12.0068 21.6ZM11.9999 19.8C12.8666 19.8 13.6999 19.6625 14.4999 19.3875C15.2999 19.1125 16.0499 18.7083 16.7499 18.175C16.0332 17.725 15.2749 17.3833 14.4749 17.15C13.6749 16.9167 12.8499 16.8 11.9999 16.8C11.1499 16.8 10.3207 16.9125 9.5124 17.1375C8.70407 17.3625 7.9499 17.7083 7.2499 18.175C7.9499 18.7083 8.6999 19.1125 9.4999 19.3875C10.2999 19.6625 11.1332 19.8 11.9999 19.8ZM11.9999 12C12.4999 12 12.9249 11.825 13.2749 11.475C13.6249 11.125 13.7999 10.7 13.7999 10.2C13.7999 9.7 13.6249 9.275 13.2749 8.925C12.9249 8.575 12.4999 8.4 11.9999 8.4C11.4999 8.4 11.0749 8.575 10.7249 8.925C10.3749 9.275 10.1999 9.7 10.1999 10.2C10.1999 10.7 10.3749 11.125 10.7249 11.475C11.0749 11.825 11.4999 12 11.9999 12Z" fill="#0496FF"/>
</g>
</svg>
