<svg width="24" height="24" viewBox="0 0 24 24" fill="none" xmlns="http://www.w3.org/2000/svg">
<mask id="mask0_807_1365" style="mask-type:alpha" maskUnits="userSpaceOnUse" x="0" y="0" width="24" height="24">
<rect width="24" height="24" fill="#D9D9D9"/>
</mask>
<g mask="url(#mask0_807_1365)">
<path d="M11.9999 20.4L10.7499 19.275C9.08324 17.7917 7.70824 16.5208 6.6249 15.4625C5.54157 14.4042 4.6874 13.4625 4.0624 12.6375C3.4374 11.8125 3.00407 11.0583 2.7624 10.375C2.52074 9.69167 2.3999 8.99167 2.3999 8.275C2.3999 6.79167 2.90824 5.54167 3.9249 4.525C4.94157 3.50833 6.19157 3 7.6749 3C8.49157 3 9.28324 3.175 10.0499 3.525C10.8166 3.875 11.4666 4.36667 11.9999 5C12.5332 4.36667 13.1832 3.875 13.9499 3.525C14.7166 3.175 15.5082 3 16.3249 3C17.8082 3 19.0582 3.50833 20.0749 4.525C21.0916 5.54167 21.5999 6.79167 21.5999 8.275C21.5999 8.99167 21.4832 9.68333 21.2499 10.35C21.0166 11.0167 20.5874 11.7583 19.9624 12.575C19.3374 13.3917 18.4791 14.3375 17.3874 15.4125C16.2957 16.4875 14.8999 17.7917 13.1999 19.325L11.9999 20.4ZM11.9999 17.975C13.5499 16.5917 14.8249 15.4125 15.8249 14.4375C16.8249 13.4625 17.6207 12.6125 18.2124 11.8875C18.8041 11.1625 19.2166 10.5167 19.4499 9.95C19.6832 9.38333 19.7999 8.825 19.7999 8.275C19.7999 7.29167 19.4666 6.46667 18.7999 5.8C18.1332 5.13333 17.3082 4.8 16.3249 4.8C15.7416 4.8 15.1957 4.92083 14.6874 5.1625C14.1791 5.40417 13.7416 5.74167 13.3749 6.175L12.4999 7.2H11.4999L10.6249 6.175C10.2582 5.74167 9.8124 5.40417 9.2874 5.1625C8.7624 4.92083 8.2249 4.8 7.6749 4.8C6.69157 4.8 5.86657 5.13333 5.1999 5.8C4.53324 6.46667 4.1999 7.29167 4.1999 8.275C4.1999 8.825 4.30824 9.37083 4.5249 9.9125C4.74157 10.4542 5.1374 11.0833 5.7124 11.8C6.2874 12.5167 7.07907 13.3667 8.0874 14.35C9.09574 15.3333 10.3999 16.5417 11.9999 17.975Z" fill="#0496FF"/>
</g>
</svg>
