<svg width="16" height="20" viewBox="0 0 16 20" fill="none" xmlns="http://www.w3.org/2000/svg">
<path d="M0.799805 16.6V14.8H1.9998V8.79999C1.9998 7.34999 2.44564 6.07499 3.3373 4.97499C4.22897 3.87499 5.38314 3.19166 6.7998 2.92499V1.59999C6.7998 1.26666 6.91647 0.983327 7.1498 0.749994C7.38314 0.516661 7.66647 0.399994 7.9998 0.399994C8.33314 0.399994 8.61647 0.516661 8.8498 0.749994C9.08314 0.983327 9.1998 1.26666 9.1998 1.59999V2.92499C10.6165 3.19166 11.7706 3.87499 12.6623 4.97499C13.554 6.07499 13.9998 7.34999 13.9998 8.79999V14.8H15.1998V16.6H0.799805ZM7.9945 19.6C7.49804 19.6 7.0748 19.4237 6.7248 19.0712C6.3748 18.7187 6.1998 18.295 6.1998 17.8H9.7998C9.7998 18.3 9.62304 18.725 9.2695 19.075C8.91595 19.425 8.49095 19.6 7.9945 19.6ZM3.7998 14.8H12.1998V8.79999C12.1998 7.63333 11.7915 6.64166 10.9748 5.82499C10.1581 5.00833 9.16647 4.59999 7.9998 4.59999C6.83314 4.59999 5.84147 5.00833 5.0248 5.82499C4.20814 6.64166 3.7998 7.63333 3.7998 8.79999V14.8Z" fill="#0496FF"/>
</svg>
