<svg width="14" height="16" viewBox="0 0 14 16" fill="none" xmlns="http://www.w3.org/2000/svg">
<path d="M1.75674 15.5833C1.38163 15.5833 1.06456 15.4514 0.805534 15.1875C0.546506 14.9236 0.416992 14.609 0.416992 14.2436V3.75645C0.416992 3.39106 0.546506 3.07642 0.805534 2.81254C1.06456 2.54865 1.38163 2.4167 1.75674 2.4167H3.57726V0.320557H4.69262V2.4167H9.34003V0.320557H10.4233V2.4167H12.2439C12.619 2.4167 12.936 2.54865 13.1951 2.81254C13.4541 3.07642 13.5836 3.39106 13.5836 3.75645V14.2436C13.5836 14.609 13.4541 14.9236 13.1951 15.1875C12.936 15.4514 12.619 15.5833 12.2439 15.5833H1.75674ZM1.75674 14.5H12.2439C12.308 14.5 12.3667 14.4733 12.4202 14.4199C12.4736 14.3665 12.5003 14.3077 12.5003 14.2436V7.25645H1.5003V14.2436C1.5003 14.3077 1.52701 14.3665 1.58043 14.4199C1.63386 14.4733 1.69263 14.5 1.75674 14.5ZM1.5003 6.17314H12.5003V3.75645C12.5003 3.69234 12.4736 3.63357 12.4202 3.58014C12.3667 3.52672 12.308 3.50002 12.2439 3.50002H1.75674C1.69263 3.50002 1.63386 3.52672 1.58043 3.58014C1.52701 3.63357 1.5003 3.69234 1.5003 3.75645V6.17314ZM7.0047 10.0641C6.82549 10.0641 6.67099 10.0007 6.54118 9.87381C6.41137 9.74692 6.34647 9.59387 6.34647 9.41466C6.34647 9.23547 6.40991 9.08097 6.53678 8.95116C6.66367 8.82136 6.81671 8.75645 6.99591 8.75645C7.17512 8.75645 7.32962 8.81989 7.45943 8.94677C7.58924 9.07366 7.65414 9.2267 7.65414 9.40589C7.65414 9.5851 7.5907 9.73961 7.46383 9.86941C7.33694 9.99922 7.1839 10.0641 7.0047 10.0641ZM3.7547 10.0641C3.57549 10.0641 3.42099 10.0007 3.29118 9.87381C3.16137 9.74692 3.09647 9.59387 3.09647 9.41466C3.09647 9.23547 3.15991 9.08097 3.28678 8.95116C3.41367 8.82136 3.56671 8.75645 3.74591 8.75645C3.92512 8.75645 4.07962 8.81989 4.20943 8.94677C4.33924 9.07366 4.40414 9.2267 4.40414 9.40589C4.40414 9.5851 4.3407 9.73961 4.21383 9.86941C4.08694 9.99922 3.93389 10.0641 3.7547 10.0641ZM10.2547 10.0641C10.0755 10.0641 9.92099 10.0007 9.79118 9.87381C9.66137 9.74692 9.59647 9.59387 9.59647 9.41466C9.59647 9.23547 9.65991 9.08097 9.78678 8.95116C9.91367 8.82136 10.0667 8.75645 10.2459 8.75645C10.4251 8.75645 10.5796 8.81989 10.7094 8.94677C10.8392 9.07366 10.9041 9.2267 10.9041 9.40589C10.9041 9.5851 10.8407 9.73961 10.7138 9.86941C10.5869 9.99922 10.4339 10.0641 10.2547 10.0641ZM7.0047 13C6.82549 13 6.67099 12.9366 6.54118 12.8097C6.41137 12.6828 6.34647 12.5298 6.34647 12.3506C6.34647 12.1714 6.40991 12.0169 6.53678 11.8871C6.66367 11.7572 6.81671 11.6923 6.99591 11.6923C7.17512 11.6923 7.32962 11.7558 7.45943 11.8827C7.58924 12.0096 7.65414 12.1626 7.65414 12.3418C7.65414 12.521 7.5907 12.6755 7.46383 12.8053C7.33694 12.9351 7.1839 13 7.0047 13ZM3.7547 13C3.57549 13 3.42099 12.9366 3.29118 12.8097C3.16137 12.6828 3.09647 12.5298 3.09647 12.3506C3.09647 12.1714 3.15991 12.0169 3.28678 11.8871C3.41367 11.7572 3.56671 11.6923 3.74591 11.6923C3.92512 11.6923 4.07962 11.7558 4.20943 11.8827C4.33924 12.0096 4.40414 12.1626 4.40414 12.3418C4.40414 12.521 4.3407 12.6755 4.21383 12.8053C4.08694 12.9351 3.93389 13 3.7547 13ZM10.2547 13C10.0755 13 9.92099 12.9366 9.79118 12.8097C9.66137 12.6828 9.59647 12.5298 9.59647 12.3506C9.59647 12.1714 9.65991 12.0169 9.78678 11.8871C9.91367 11.7572 10.0667 11.6923 10.2459 11.6923C10.4251 11.6923 10.5796 11.7558 10.7094 11.8827C10.8392 12.0096 10.9041 12.1626 10.9041 12.3418C10.9041 12.521 10.8407 12.6755 10.7138 12.8053C10.5869 12.9351 10.4339 13 10.2547 13Z" fill="#5E5E5E"/>
</svg>
