<svg width="12" height="14" viewBox="0 0 12 14" fill="none" xmlns="http://www.w3.org/2000/svg">
<path d="M2.20801 13.5833V11.1634H0.708008V10.0801H2.20801V8.27556H0.708008V7.19225H2.20801V0.416626H7.36184C8.45733 0.416626 9.38611 0.797078 10.1482 1.55798C10.9103 2.31888 11.2913 3.24623 11.2913 4.34002C11.2913 5.43381 10.9103 6.36318 10.1482 7.12813C9.38611 7.89309 8.45733 8.27556 7.36184 8.27556H3.2913V10.0801H6.7913V11.1634H3.2913V13.5833H2.20801ZM3.2913 7.19225H7.36184C8.15229 7.19225 8.82426 6.91395 9.37776 6.35734C9.93126 5.80072 10.208 5.12872 10.208 4.34131C10.208 3.55391 9.93017 2.88349 9.37449 2.33006C8.81881 1.77665 8.14792 1.49994 7.36184 1.49994H3.2913V7.19225Z" fill="#5E5E5E"/>
</svg>
