<svg width="14" height="16" viewBox="0 0 14 16" fill="none" xmlns="http://www.w3.org/2000/svg">
<path d="M7.00616 7.88775C7.3762 7.88775 7.69103 7.75599 7.95064 7.49248C8.21025 7.22898 8.34006 6.91221 8.34006 6.54217C8.34006 6.17214 8.20831 5.85732 7.94481 5.59771C7.68129 5.3381 7.36452 5.20829 6.99449 5.20829C6.62445 5.20829 6.30963 5.34004 6.05002 5.60354C5.7904 5.86706 5.6606 6.18383 5.6606 6.55386C5.6606 6.9239 5.79235 7.23872 6.05585 7.49833C6.31936 7.75795 6.63613 7.88775 7.00616 7.88775ZM7.00033 14.157C8.58899 12.7671 9.82618 11.4124 10.7119 10.0929C11.5976 8.77345 12.0404 7.60999 12.0404 6.6025C12.0404 5.13883 11.5647 3.92115 10.6133 2.94946C9.66192 1.97777 8.45759 1.49192 7.00033 1.49192C5.54306 1.49192 4.33874 1.97777 3.38735 2.94946C2.43596 3.92115 1.96027 5.13883 1.96027 6.6025C1.96027 7.60999 2.40311 8.77345 3.28879 10.0929C4.17448 11.4124 5.41166 12.7671 7.00033 14.157ZM7.00033 15.5913C4.95902 13.8558 3.42813 12.2406 2.40766 10.7456C1.38719 9.25063 0.876953 7.8696 0.876953 6.6025C0.876953 4.90167 1.44693 3.44548 2.58689 2.23394C3.72684 1.0224 5.19451 0.416626 6.98991 0.416626C8.78531 0.416626 10.2565 1.0224 11.4033 2.23394C12.5503 3.44548 13.1237 4.90167 13.1237 6.6025C13.1237 7.8696 12.617 9.24754 11.6037 10.7363C10.5903 12.2251 9.05587 13.8434 7.00033 15.5913Z" fill="#5E5E5E"/>
</svg>
