<svg width="16" height="16" viewBox="0 0 16 16" fill="none" xmlns="http://www.w3.org/2000/svg">
<path d="M10.9362 11.3974L11.7102 10.6234L8.54195 7.45488V2.99994H7.45866V7.91981L10.9362 11.3974ZM8.0017 15.5833C6.9571 15.5833 5.97521 15.3859 5.05603 14.9912C4.13685 14.5964 3.33134 14.0533 2.63949 13.3618C1.94763 12.6703 1.40425 11.8641 1.00935 10.9433C0.614444 10.0225 0.416992 9.0387 0.416992 7.99179C0.416992 6.94488 0.614353 5.96053 1.00908 5.03875C1.4038 4.11696 1.94692 3.31361 2.63845 2.62871C3.32999 1.94379 4.13615 1.40388 5.05693 1.00898C5.97771 0.614078 6.96155 0.416626 8.00845 0.416626C9.05537 0.416626 10.0398 0.615654 10.9616 1.01371C11.8835 1.41177 12.6854 1.95197 13.3673 2.63433C14.0493 3.31671 14.5891 4.11913 14.9869 5.04161C15.3847 5.96406 15.5836 6.94971 15.5836 7.99854C15.5836 9.04314 15.3863 10.025 14.9915 10.9442C14.5968 11.8634 14.0572 12.6689 13.3726 13.3608C12.688 14.0526 11.8841 14.596 10.9609 14.9909C10.0377 15.3858 9.05134 15.5833 8.0017 15.5833ZM8.01024 14.4999C9.80853 14.4999 11.3398 13.8645 12.604 12.5937C13.8682 11.3229 14.5003 9.78829 14.5003 7.99C14.5003 6.19171 13.8682 4.66046 12.604 3.39625C11.3398 2.13204 9.80853 1.49994 8.01024 1.49994C6.21195 1.49994 4.67739 2.13204 3.40655 3.39625C2.13572 4.66046 1.5003 6.19171 1.5003 7.99C1.5003 9.78829 2.13572 11.3229 3.40655 12.5937C4.67739 13.8645 6.21195 14.4999 8.01024 14.4999Z" fill="#5E5E5E"/>
</svg>
