<?xml version="1.0" encoding="UTF-8"?>
<!DOCTYPE svg PUBLIC "-//W3C//DTD SVG 1.1//EN" "http://www.w3.org/Graphics/SVG/1.1/DTD/svg11.dtd">
<svg xmlns="http://www.w3.org/2000/svg" version="1.1" width="84px" height="84px" style="shape-rendering:geometricPrecision; text-rendering:geometricPrecision; image-rendering:optimizeQuality; fill-rule:evenodd; clip-rule:evenodd" xmlns:xlink="http://www.w3.org/1999/xlink">
<g><path style="opacity:0.904" fill="#0495ff" d="M 38.5,11.5 C 41.695,10.9607 44.195,11.9607 46,14.5C 46.4996,21.4921 46.6663,28.4921 46.5,35.5C 53.5079,35.3337 60.5079,35.5004 67.5,36C 69.9096,36.7579 70.9096,38.4246 70.5,41C 70.6464,43.0342 69.9797,44.7009 68.5,46C 61.1742,46.4997 53.8409,46.6663 46.5,46.5C 46.6663,53.8409 46.4997,61.1742 46,68.5C 43.5027,70.4782 40.6693,70.9782 37.5,70C 36.8742,69.2496 36.3742,68.4162 36,67.5C 35.5004,60.5079 35.3337,53.5079 35.5,46.5C 28.4921,46.6663 21.4921,46.4996 14.5,46C 10.5149,42.714 10.5149,39.3807 14.5,36C 21.4921,35.5004 28.4921,35.3337 35.5,35.5C 35.3337,28.4921 35.5004,21.4921 36,14.5C 37.045,13.6266 37.8783,12.6266 38.5,11.5 Z"/></g>
</svg>
