<?xml version="1.0" encoding="UTF-8"?>
<!DOCTYPE svg PUBLIC "-//W3C//DTD SVG 1.1//EN" "http://www.w3.org/Graphics/SVG/1.1/DTD/svg11.dtd">
<svg xmlns="http://www.w3.org/2000/svg" version="1.1" width="117px" height="117px" style="shape-rendering:geometricPrecision; text-rendering:geometricPrecision; image-rendering:optimizeQuality; fill-rule:evenodd; clip-rule:evenodd" xmlns:xlink="http://www.w3.org/1999/xlink">
<g><path style="opacity:0.901" fill="#0495ff" d="M 88.5,19.5 C 96.584,19.1204 101.751,22.7871 104,30.5C 104.667,47.5 104.667,64.5 104,81.5C 101.032,89.7371 95.1983,92.9037 86.5,91C 80.5,87.3333 74.5,83.6667 68.5,80C 64.8484,79.5014 61.1817,79.3347 57.5,79.5C 60.3206,94.1787 54.3206,100.679 39.5,99C 37.9095,97.9542 36.4095,96.7875 35,95.5C 32.6787,90.0639 31.1787,84.3972 30.5,78.5C 16.2368,74.7049 10.0701,65.3716 12,50.5C 14.4035,41.7627 19.9035,35.9294 28.5,33C 41.5,32.6667 54.5,32.3333 67.5,32C 74.4291,27.5399 81.4291,23.3732 88.5,19.5 Z M 89.5,29.5 C 91.1439,29.2865 92.6439,29.6198 94,30.5C 94.6667,47.1667 94.6667,63.8333 94,80.5C 93.3109,81.3567 92.4776,82.0233 91.5,82.5C 84.4131,78.5414 77.5798,74.2081 71,69.5C 70.3333,60.1667 70.3333,50.8333 71,41.5C 77.3168,37.6005 83.4834,33.6005 89.5,29.5 Z M 32.5,41.5 C 42.1667,41.5 51.8333,41.5 61.5,41.5C 61.5,50.8333 61.5,60.1667 61.5,69.5C 51.1613,69.6665 40.828,69.4998 30.5,69C 21.6407,64.4177 19.1407,57.5843 23,48.5C 25.529,45.1151 28.6956,42.7818 32.5,41.5 Z M 40.5,79.5 C 48.2679,79.0915 50.6013,82.5915 47.5,90C 45.2992,90.8249 43.4659,90.3249 42,88.5C 41.304,85.5219 40.804,82.5219 40.5,79.5 Z"/></g>
</svg>
