<?xml version="1.0" encoding="UTF-8"?>
<!DOCTYPE svg PUBLIC "-//W3C//DTD SVG 1.1//EN" "http://www.w3.org/Graphics/SVG/1.1/DTD/svg11.dtd">
<svg xmlns="http://www.w3.org/2000/svg" version="1.1" width="84px" height="84px" style="shape-rendering:geometricPrecision; text-rendering:geometricPrecision; image-rendering:optimizeQuality; fill-rule:evenodd; clip-rule:evenodd" xmlns:xlink="http://www.w3.org/1999/xlink">
<g><path style="opacity:0.884" fill="#0495ff" d="M 36.5,15.5 C 41.0685,15.0826 42.5685,17.0826 41,21.5C 36.5334,26.9681 31.7,32.1347 26.5,37C 40.1667,37.3333 53.8333,37.6667 67.5,38C 68.8333,40 68.8333,42 67.5,44C 53.8333,44.3333 40.1667,44.6667 26.5,45C 30.9666,50.4681 35.8,55.6347 41,60.5C 42.5,65.6667 40.6667,67.5 35.5,66C 32.6667,63.1667 29.8333,60.3333 27,57.5C 22.2809,52.2868 17.7809,46.9534 13.5,41.5C 13.7189,40.062 14.2189,38.7287 15,37.5C 22.4239,30.2448 29.5906,22.9114 36.5,15.5 Z"/></g>
</svg>
