<?xml version="1.0" encoding="UTF-8"?>
<!DOCTYPE svg PUBLIC "-//W3C//DTD SVG 1.1//EN" "http://www.w3.org/Graphics/SVG/1.1/DTD/svg11.dtd">
<svg xmlns="http://www.w3.org/2000/svg" version="1.1" width="84px" height="84px" style="shape-rendering:geometricPrecision; text-rendering:geometricPrecision; image-rendering:optimizeQuality; fill-rule:evenodd; clip-rule:evenodd" xmlns:xlink="http://www.w3.org/1999/xlink">
<g><path style="opacity:0.885" fill="#0495ff" d="M 42.5,15.5 C 43.8734,15.3433 45.2068,15.51 46.5,16C 53.3019,23.803 60.4686,31.303 68,38.5C 68.1667,39.3333 68.3333,40.1667 68.5,41C 62.3335,50.1788 55.0001,58.5121 46.5,66C 40.9403,66.7214 39.4403,64.5547 42,59.5C 46.8333,54.6667 51.6667,49.8333 56.5,45C 42.5,44.6667 28.5,44.3333 14.5,44C 13.0652,41.7328 13.3985,39.7328 15.5,38C 28.8333,37.6667 42.1667,37.3333 55.5,37C 51.0334,31.5319 46.2,26.3653 41,21.5C 40.2516,19.1599 40.7516,17.1599 42.5,15.5 Z"/></g>
</svg>
