<?xml version="1.0" encoding="UTF-8"?>
<!DOCTYPE svg PUBLIC "-//W3C//DTD SVG 1.1//EN" "http://www.w3.org/Graphics/SVG/1.1/DTD/svg11.dtd">
<svg xmlns="http://www.w3.org/2000/svg" version="1.1" width="117px" height="117px" style="shape-rendering:geometricPrecision; text-rendering:geometricPrecision; image-rendering:optimizeQuality; fill-rule:evenodd; clip-rule:evenodd" xmlns:xlink="http://www.w3.org/1999/xlink">
<g><path style="opacity:0.934" fill="#0495ff" d="M 49.5,11.5 C 54.8437,11.334 60.1771,11.5006 65.5,12C 73.011,14.844 76.011,20.344 74.5,28.5C 81.8409,28.3337 89.1742,28.5003 96.5,29C 103.19,31.0263 107.023,35.5263 108,42.5C 108.667,56.8333 108.667,71.1667 108,85.5C 107.116,92.0489 103.616,96.5489 97.5,99C 71.1667,99.6667 44.8333,99.6667 18.5,99C 13.2425,96.7437 9.74251,92.9104 8,87.5C 7.33333,71.8333 7.33333,56.1667 8,40.5C 9.83333,34.6667 13.6667,30.8333 19.5,29C 26.4921,28.5004 33.4921,28.3337 40.5,28.5C 39.6083,20.61 42.6083,14.9433 49.5,11.5 Z M 53.5,20.5 C 57.3076,20.1632 60.9743,20.6632 64.5,22C 65.4231,24.0408 65.7564,26.2075 65.5,28.5C 60.5,28.5 55.5,28.5 50.5,28.5C 49.8285,25.014 50.8285,22.3473 53.5,20.5 Z M 22.5,37.5 C 24.5,37.5 26.5,37.5 28.5,37.5C 28.5,55.1667 28.5,72.8333 28.5,90.5C 22.4792,91.6301 18.6459,89.2967 17,83.5C 16.3333,70.5 16.3333,57.5 17,44.5C 17.9383,41.4025 19.7716,39.0691 22.5,37.5 Z M 37.5,37.5 C 51.1667,37.5 64.8333,37.5 78.5,37.5C 78.5,55.1667 78.5,72.8333 78.5,90.5C 64.8333,90.5 51.1667,90.5 37.5,90.5C 37.5,72.8333 37.5,55.1667 37.5,37.5 Z M 87.5,37.5 C 91.8027,36.7962 95.3027,38.1295 98,41.5C 100,56.5 100,71.5 98,86.5C 95.3027,89.8705 91.8027,91.2038 87.5,90.5C 87.5,72.8333 87.5,55.1667 87.5,37.5 Z"/></g>
</svg>
