<?xml version="1.0" encoding="UTF-8"?>
<!DOCTYPE svg PUBLIC "-//W3C//DTD SVG 1.1//EN" "http://www.w3.org/Graphics/SVG/1.1/DTD/svg11.dtd">
<svg xmlns="http://www.w3.org/2000/svg" version="1.1" width="84px" height="84px" style="shape-rendering:geometricPrecision; text-rendering:geometricPrecision; image-rendering:optimizeQuality; fill-rule:evenodd; clip-rule:evenodd" xmlns:xlink="http://www.w3.org/1999/xlink">
<g><path style="opacity:0.901" fill="#000000" d="M 22.5,3.5 C 25.6041,2.97106 27.9375,3.97106 29.5,6.5C 37.4723,7.4977 45.4723,7.83103 53.5,7.5C 53.7796,3.77468 55.7796,2.60802 59.5,4C 60.1667,5.33333 60.8333,6.66667 61.5,8C 67.9253,9.42688 72.0919,13.2602 74,19.5C 74.6667,33.8333 74.6667,48.1667 74,62.5C 72.1667,68.3333 68.3333,72.1667 62.5,74C 48.1667,74.6667 33.8333,74.6667 19.5,74C 13.2602,72.0919 9.42688,67.9253 8,61.5C 7.33333,47.8333 7.33333,34.1667 8,20.5C 10.1667,14.3333 14.3333,10.1667 20.5,8C 21.5822,6.67028 22.2488,5.17028 22.5,3.5 Z M 29.5,14.5 C 37.5,14.5 45.5,14.5 53.5,14.5C 53.7796,18.2253 55.7796,19.392 59.5,18C 60.1258,17.2496 60.6258,16.4162 61,15.5C 64.0918,16.9232 66.0918,19.2565 67,22.5C 67.6667,35.1667 67.6667,47.8333 67,60.5C 65.5,63.3333 63.3333,65.5 60.5,67C 54.1667,67.1667 47.8333,67.3333 41.5,67.5C 34.0919,67.6134 26.7586,67.1134 19.5,66C 17.1064,64.0478 15.6064,61.5478 15,58.5C 14.3333,46.8333 14.3333,35.1667 15,23.5C 16.0277,20.1145 18.0277,17.4478 21,15.5C 24.6286,19.8265 27.4619,19.4932 29.5,14.5 Z"/></g>
<g><path style="opacity:0.898" fill="#000000" d="M 51.5,29.5 C 55.6914,28.8686 57.5248,30.5352 57,34.5C 50.8333,40.6667 44.6667,46.8333 38.5,53C 37.5,53.6667 36.5,53.6667 35.5,53C 32.3333,49.8333 29.1667,46.6667 26,43.5C 25.3333,41.8333 25.3333,40.1667 26,38.5C 26.7247,37.9415 27.5581,37.6082 28.5,37.5C 31.7434,39.2347 34.5767,41.5681 37,44.5C 42.0365,39.6313 46.8698,34.6313 51.5,29.5 Z"/></g>
</svg>
