<?xml version="1.0" encoding="UTF-8"?>
<!DOCTYPE svg PUBLIC "-//W3C//DTD SVG 1.1//EN" "http://www.w3.org/Graphics/SVG/1.1/DTD/svg11.dtd">
<svg xmlns="http://www.w3.org/2000/svg" version="1.1" width="117px" height="117px" style="shape-rendering:geometricPrecision; text-rendering:geometricPrecision; image-rendering:optimizeQuality; fill-rule:evenodd; clip-rule:evenodd" xmlns:xlink="http://www.w3.org/1999/xlink">
<g><path style="opacity:0.907" fill="#ee4a3b" d="M 25.5,24.5 C 27.5273,24.3379 29.5273,24.5045 31.5,25C 40.0142,33.6811 48.6809,42.1811 57.5,50.5C 66.3191,42.1811 74.9858,33.6811 83.5,25C 90.0906,22.7562 92.5906,24.9229 91,31.5C 82.1667,40.3333 73.3333,49.1667 64.5,58C 73.3333,66.8333 82.1667,75.6667 91,84.5C 92.1667,90 90,92.1667 84.5,91C 75.6667,82.1667 66.8333,73.3333 58,64.5C 49.1667,73.3333 40.3333,82.1667 31.5,91C 24.8269,92.2646 22.6602,89.7646 25,83.5C 33.6811,74.9858 42.1811,66.3191 50.5,57.5C 42.1811,48.6809 33.6811,40.0142 25,31.5C 24.2967,29.0709 24.4634,26.7375 25.5,24.5 Z"/></g>
</svg>
