<?xml version="1.0" encoding="UTF-8"?>
<!DOCTYPE svg PUBLIC "-//W3C//DTD SVG 1.1//EN" "http://www.w3.org/Graphics/SVG/1.1/DTD/svg11.dtd">
<svg xmlns="http://www.w3.org/2000/svg" version="1.1" width="117px" height="117px" style="shape-rendering:geometricPrecision; text-rendering:geometricPrecision; image-rendering:optimizeQuality; fill-rule:evenodd; clip-rule:evenodd" xmlns:xlink="http://www.w3.org/1999/xlink">
<g><path style="opacity:0.965" fill="#0495ff" d="M 49.5,7.5 C 72.1643,5.25079 89.6643,13.5841 102,32.5C 111.896,52.8544 110.229,72.1877 97,90.5C 75.4651,111.464 51.9651,113.964 26.5,98C 10.0654,83.6955 4.23211,65.8622 9,44.5C 15.5456,24.4888 29.0456,12.1555 49.5,7.5 Z M 79.5,39.5 C 83.0003,39.4954 84.5003,41.1621 84,44.5C 72.6526,56.0142 61.1526,67.3476 49.5,78.5C 43.5146,73.0149 37.6812,67.3482 32,61.5C 31.5,58 33,56.5 36.5,57C 40.6816,61.3487 45.0149,65.5154 49.5,69.5C 59.8543,59.8123 69.8543,49.8123 79.5,39.5 Z"/></g>
</svg>
