<?xml version="1.0" encoding="UTF-8"?>
<!DOCTYPE svg PUBLIC "-//W3C//DTD SVG 1.1//EN" "http://www.w3.org/Graphics/SVG/1.1/DTD/svg11.dtd">
<svg xmlns="http://www.w3.org/2000/svg" version="1.1" width="117px" height="117px" style="shape-rendering:geometricPrecision; text-rendering:geometricPrecision; image-rendering:optimizeQuality; fill-rule:evenodd; clip-rule:evenodd" xmlns:xlink="http://www.w3.org/1999/xlink">
<g><path style="opacity:0.898" fill="#0495ff" d="M 49.5,7.5 C 72.1643,5.25079 89.6643,13.5841 102,32.5C 111.896,52.8544 110.229,72.1877 97,90.5C 75.4651,111.464 51.9651,113.964 26.5,98C 10.0654,83.6955 4.23211,65.8622 9,44.5C 15.5456,24.4888 29.0456,12.1555 49.5,7.5 Z M 53.5,16.5 C 76.5943,16.4552 91.4277,27.4552 98,49.5C 100.686,74.3068 90.186,90.4734 66.5,98C 39.5104,100.758 23.0104,88.9245 17,62.5C 15.7486,44.8355 22.5819,31.3355 37.5,22C 42.715,19.4295 48.0484,17.5961 53.5,16.5 Z"/></g>
<g><path style="opacity:0.928" fill="#0495ff" d="M 76.5,40.5 C 81.6646,40.1619 83.8313,42.4953 83,47.5C 72.5,58 62,68.5 51.5,79C 50.1667,79.6667 48.8333,79.6667 47.5,79C 42,73.5 36.5,68 31,62.5C 29.8333,57 32,54.8333 37.5,56C 41.3484,60.0156 45.3484,63.8489 49.5,67.5C 58.8543,58.8123 67.8543,49.8123 76.5,40.5 Z"/></g>
</svg>
