<?xml version="1.0" encoding="UTF-8"?>
<!DOCTYPE svg PUBLIC "-//W3C//DTD SVG 1.1//EN" "http://www.w3.org/Graphics/SVG/1.1/DTD/svg11.dtd">
<svg xmlns="http://www.w3.org/2000/svg" version="1.1" width="117px" height="117px" style="shape-rendering:geometricPrecision; text-rendering:geometricPrecision; image-rendering:optimizeQuality; fill-rule:evenodd; clip-rule:evenodd" xmlns:xlink="http://www.w3.org/1999/xlink">
<g><path style="opacity:0.881" fill="#ee4a3b" d="M 59.5,11.5 C 70.2221,11.1254 80.8888,11.6254 91.5,13C 97.0611,15.5617 100.894,19.7284 103,25.5C 105,47.1667 105,68.8333 103,90.5C 100.833,96.6667 96.6667,100.833 90.5,103C 80.5403,104.462 70.5403,104.795 60.5,104C 57.6212,102.334 56.7879,99.8342 58,96.5C 58.7504,95.8742 59.5838,95.3742 60.5,95C 69.1667,94.6667 77.8333,94.3333 86.5,94C 90.3333,92.8333 92.8333,90.3333 94,86.5C 94.1667,76.8333 94.3333,67.1667 94.5,57.5C 102.27,26.7711 90.6031,14.2711 59.5,20C 56.8987,17.1705 56.8987,14.3371 59.5,11.5 Z"/></g>
<g><path style="opacity:0.926" fill="#ee4a3b" d="M 47.5,36.5 C 49.6547,36.372 51.6547,36.872 53.5,38C 59,43.5 64.5,49 70,54.5C 70.6667,56.5 70.6667,58.5 70,60.5C 63.59,67.4145 56.7567,73.7479 49.5,79.5C 45.7169,78.5628 44.2169,76.2295 45,72.5C 48.1667,69.3333 51.3333,66.1667 54.5,63C 40.8333,62.6667 27.1667,62.3333 13.5,62C 10.8333,59.3333 10.8333,56.6667 13.5,54C 27.1667,53.6667 40.8333,53.3333 54.5,53C 50.9636,49.7988 47.7969,46.2988 45,42.5C 44.4585,39.9175 45.2918,37.9175 47.5,36.5 Z"/></g>
</svg>
