<?xml version="1.0" encoding="UTF-8"?>
<!DOCTYPE svg PUBLIC "-//W3C//DTD SVG 1.1//EN" "http://www.w3.org/Graphics/SVG/1.1/DTD/svg11.dtd">
<svg xmlns="http://www.w3.org/2000/svg" version="1.1" width="134px" height="134px" style="shape-rendering:geometricPrecision; text-rendering:geometricPrecision; image-rendering:optimizeQuality; fill-rule:evenodd; clip-rule:evenodd" xmlns:xlink="http://www.w3.org/1999/xlink">
<g><path style="opacity:0.979" fill="#0495ff" d="M 56.5,7.5 C 91.6498,5.30352 114.15,20.9702 124,54.5C 127.811,90.7369 112.311,113.904 77.5,124C 40.2836,127.763 17.1169,111.596 8,75.5C 5.80823,39.4988 21.9749,16.8321 56.5,7.5 Z M 65.5,38.5 C 67.7848,39.2245 69.6181,40.5578 71,42.5C 71.6667,50.8333 71.6667,59.1667 71,67.5C 68.4905,72.2549 65.4905,72.5883 62,68.5C 61.3333,59.5 61.3333,50.5 62,41.5C 63.1451,40.3636 64.3117,39.3636 65.5,38.5 Z M 64.5,81.5 C 71.3875,81.5532 73.8875,84.8866 72,91.5C 68.0454,95.4892 64.0454,95.4892 60,91.5C 58.5582,86.7232 60.0582,83.3898 64.5,81.5 Z"/></g>
</svg>
