<?xml version="1.0" encoding="UTF-8"?>
<!DOCTYPE svg PUBLIC "-//W3C//DTD SVG 1.1//EN" "http://www.w3.org/Graphics/SVG/1.1/DTD/svg11.dtd">
<svg xmlns="http://www.w3.org/2000/svg" version="1.1" width="84px" height="84px" style="shape-rendering:geometricPrecision; text-rendering:geometricPrecision; image-rendering:optimizeQuality; fill-rule:evenodd; clip-rule:evenodd" xmlns:xlink="http://www.w3.org/1999/xlink">
<g><path style="opacity:0.867" fill="#0495ff" d="M 20.5,9.5 C 28.3715,8.18155 35.2048,10.1816 41,15.5C 48.2316,9.4111 56.3983,7.9111 65.5,11C 76.0892,16.5009 80.0892,24.8343 77.5,36C 76.1667,36.6667 74.8333,36.6667 73.5,36C 72.6423,29.2882 69.6423,23.6215 64.5,19C 59.9872,16.2463 55.3205,15.9129 50.5,18C 47.5676,20.6145 44.401,22.7811 41,24.5C 37.9805,23.4952 35.4805,21.6619 33.5,19C 22.9521,14.8555 15.4521,18.0222 11,28.5C 10.3333,31.5 10.3333,34.5 11,37.5C 12.4836,41.1323 14.4836,44.4656 17,47.5C 24,53.1667 31,58.8333 38,64.5C 39.5,69.6667 37.6667,71.5 32.5,70C 23.4899,63.8933 15.3233,56.7266 8,48.5C 2.82494,39.5448 2.15827,30.2115 6,20.5C 9.51447,15.0034 14.3478,11.3367 20.5,9.5 Z"/></g>
<g><path style="opacity:0.877" fill="#0495ff" d="M 57.5,36.5 C 59.288,36.2148 60.9547,36.5481 62.5,37.5C 64.1388,42.713 67.1388,43.713 71.5,40.5C 72.4776,40.9767 73.3109,41.6433 74,42.5C 74,45.1667 74,47.8333 74,50.5C 81.3165,53.7811 81.3165,57.1145 74,60.5C 73.8724,63.5144 73.8724,66.5144 74,69.5C 70.9203,69.9686 67.7537,70.1353 64.5,70C 61.318,75.952 58.318,75.952 55.5,70C 52.4856,69.8724 49.4856,69.8724 46.5,70C 46.2292,66.864 45.8959,63.6974 45.5,60.5C 44.1502,59.0499 42.4835,58.3832 40.5,58.5C 40.3398,56.8008 40.5065,55.1341 41,53.5C 42.892,52.87 44.5587,51.87 46,50.5C 46,47.8333 46,45.1667 46,42.5C 46.6667,41.8333 47.3333,41.1667 48,40.5C 53.1325,43.9227 56.2992,42.5894 57.5,36.5 Z M 56.5,48.5 C 62.7552,47.2607 66.4219,49.7607 67.5,56C 65.1273,63.8747 60.6273,65.3747 54,60.5C 51.5112,55.7565 52.3445,51.7565 56.5,48.5 Z"/></g>
</svg>
