<?xml version="1.0" encoding="UTF-8"?>
<!DOCTYPE svg PUBLIC "-//W3C//DTD SVG 1.1//EN" "http://www.w3.org/Graphics/SVG/1.1/DTD/svg11.dtd">
<svg xmlns="http://www.w3.org/2000/svg" version="1.1" width="84px" height="84px" style="shape-rendering:geometricPrecision; text-rendering:geometricPrecision; image-rendering:optimizeQuality; fill-rule:evenodd; clip-rule:evenodd" xmlns:xlink="http://www.w3.org/1999/xlink">
<g><path style="opacity:0.879" fill="#0495ff" d="M 17.5,11.5 C 18.8734,11.3433 20.2068,11.51 21.5,12C 37.6667,28.1667 53.8333,44.3333 70,60.5C 71.5,65.6667 69.6667,67.5 64.5,66C 63.3333,64.8333 62.1667,63.6667 61,62.5C 40.8221,70.451 22.8221,67.1176 7,52.5C 2.07936,44.2898 2.41269,36.2898 8,28.5C 11.3579,25.6415 14.8579,22.9749 18.5,20.5C 15.054,17.7513 14.7207,14.7513 17.5,11.5 Z M 23.5,26.5 C 26.0562,27.5434 28.2228,29.2101 30,31.5C 28.6854,36.3424 28.352,41.3424 29,46.5C 34.2347,54.6325 41.068,56.2992 49.5,51.5C 56.3993,56.2818 55.3993,58.7818 46.5,59C 32.8571,60.5538 21.3571,56.3872 12,46.5C 9.52803,40.2547 11.028,35.0881 16.5,31C 18.8981,29.4758 21.2314,27.9758 23.5,26.5 Z M 36.5,38.5 C 39.1456,40.4789 41.4789,42.8122 43.5,45.5C 37.4713,46.8047 35.1379,44.4713 36.5,38.5 Z"/></g>
<g><path style="opacity:0.862" fill="#0495ff" d="M 39.5,15.5 C 53.9278,15.1391 66.0944,20.1391 76,30.5C 80.8901,38.3746 80.3901,45.8746 74.5,53C 69.3333,54.5 67.5,52.6667 69,47.5C 71.8688,43.7416 72.2021,39.7416 70,35.5C 61.3191,26.9339 50.8191,22.4339 38.5,22C 37.0909,19.5359 37.4243,17.3692 39.5,15.5 Z"/></g>
</svg>
