<?xml version="1.0" encoding="UTF-8"?>
<!DOCTYPE svg PUBLIC "-//W3C//DTD SVG 1.1//EN" "http://www.w3.org/Graphics/SVG/1.1/DTD/svg11.dtd">
<svg xmlns="http://www.w3.org/2000/svg" version="1.1" width="84px" height="84px" style="shape-rendering:geometricPrecision; text-rendering:geometricPrecision; image-rendering:optimizeQuality; fill-rule:evenodd; clip-rule:evenodd" xmlns:xlink="http://www.w3.org/1999/xlink">
<g><path style="opacity:0.871" fill="#000000" d="M 35.5,5.5 C 48.6714,3.82929 57.5047,9.16262 62,21.5C 62.7363,35.8651 57.5696,47.6985 46.5,57C 42.8333,59 39.1667,59 35.5,57C 26.4541,48.7858 21.1208,38.6191 19.5,26.5C 20.3965,15.9568 25.7298,8.95682 35.5,5.5 Z M 38.5,12.5 C 47.9783,12.8085 53.6449,17.6418 55.5,27C 53.5902,36.9996 48.7568,45.1663 41,51.5C 33.4785,44.9538 28.9785,36.7872 27.5,27C 28.0022,19.6757 31.6689,14.8423 38.5,12.5 Z"/></g>
<g><path style="opacity:0.872" fill="#000000" d="M 39.5,19.5 C 46.8653,19.7137 49.3653,23.3804 47,30.5C 42.601,34.6545 38.601,34.3211 35,29.5C 33.5582,24.7232 35.0582,21.3898 39.5,19.5 Z"/></g>
<g><path style="opacity:0.865" fill="#000000" d="M 16.5,47.5 C 21.6752,46.5071 23.5086,48.5071 22,53.5C 17.2322,57.5402 17.3988,61.3735 22.5,65C 34.8333,71 47.1667,71 59.5,65C 61.7262,63.3805 63.0596,61.2138 63.5,58.5C 61.9407,56.1108 60.6073,53.6108 59.5,51C 60.1379,47.7072 62.1379,46.7072 65.5,48C 70.2114,52.1396 71.7114,57.3062 70,63.5C 66.1703,70.3101 60.337,74.4768 52.5,76C 39.687,78.6466 27.687,76.6466 16.5,70C 9.95125,62.5328 9.95125,55.0328 16.5,47.5 Z"/></g>
</svg>
