<?xml version="1.0" encoding="UTF-8"?>
<!DOCTYPE svg PUBLIC "-//W3C//DTD SVG 1.1//EN" "http://www.w3.org/Graphics/SVG/1.1/DTD/svg11.dtd">
<svg xmlns="http://www.w3.org/2000/svg" version="1.1" width="117px" height="117px" style="shape-rendering:geometricPrecision; text-rendering:geometricPrecision; image-rendering:optimizeQuality; fill-rule:evenodd; clip-rule:evenodd" xmlns:xlink="http://www.w3.org/1999/xlink">
<g><path style="opacity:0.933" fill="#0495ff" d="M 19.5,24.5 C 45.1688,24.3334 70.8355,24.5 96.5,25C 98.0135,27.9156 97.6801,30.5823 95.5,33C 70.5,33.6667 45.5,33.6667 20.5,33C 17.0015,30.514 16.6681,27.6807 19.5,24.5 Z"/></g>
<g><path style="opacity:0.932" fill="#0495ff" d="M 19.5,53.5 C 45.1688,53.3334 70.8355,53.5 96.5,54C 98.0135,56.9156 97.6801,59.5823 95.5,62C 70.1667,62.6667 44.8333,62.6667 19.5,62C 16.8852,59.0931 16.8852,56.2598 19.5,53.5 Z"/></g>
<g><path style="opacity:0.931" fill="#0495ff" d="M 19.5,82.5 C 45.1688,82.3334 70.8355,82.5 96.5,83C 97.8333,85.6667 97.8333,88.3333 96.5,91C 70.8333,91.6667 45.1667,91.6667 19.5,91C 16.9387,88.1767 16.9387,85.3433 19.5,82.5 Z"/></g>
</svg>
