<?xml version="1.0" encoding="UTF-8"?>
<!DOCTYPE svg PUBLIC "-//W3C//DTD SVG 1.1//EN" "http://www.w3.org/Graphics/SVG/1.1/DTD/svg11.dtd">
<svg xmlns="http://www.w3.org/2000/svg" version="1.1" width="117px" height="117px" style="shape-rendering:geometricPrecision; text-rendering:geometricPrecision; image-rendering:optimizeQuality; fill-rule:evenodd; clip-rule:evenodd" xmlns:xlink="http://www.w3.org/1999/xlink">
<g><path style="opacity:0.904" fill="#0495ff" d="M 49.5,7.5 C 72.1643,5.25079 89.6643,13.5841 102,32.5C 111.896,52.8544 110.229,72.1877 97,90.5C 75.4651,111.464 51.9651,113.964 26.5,98C 10.0654,83.6955 4.23211,65.8622 9,44.5C 15.5456,24.4888 29.0456,12.1555 49.5,7.5 Z M 53.5,16.5 C 76.5943,16.4552 91.4277,27.4552 98,49.5C 100.407,62.3694 97.5741,73.8694 89.5,84C 82.7032,81.4548 75.7032,79.1215 68.5,77C 54.0054,74.5027 40.5054,77.0027 28,84.5C 20.5399,77.3975 16.7065,68.5641 16.5,58C 18.5333,34.8081 30.8666,20.9748 53.5,16.5 Z M 55.5,39.5 C 66.7362,40.2279 70.5696,45.8945 67,56.5C 57.3479,64.5239 50.5146,62.5239 46.5,50.5C 47.7561,45.2579 50.7561,41.5912 55.5,39.5 Z M 51.5,85.5 C 61.9211,84.5496 71.5878,86.7163 80.5,92C 71.0252,98.0756 60.6918,100.076 49.5,98C 44.3487,97.09 39.682,95.09 35.5,92C 40.5664,88.9285 45.8997,86.7618 51.5,85.5 Z"/></g>
<g><path style="opacity:0.901" fill="#0495ff" d="M 51.5,30.5 C 71.2568,29.0862 79.7568,38.0862 77,57.5C 71.9395,68.4464 63.4395,72.613 51.5,70C 37.6222,63.0334 34.1222,52.5334 41,38.5C 43.94,34.9632 47.44,32.2965 51.5,30.5 Z M 55.5,39.5 C 50.7561,41.5912 47.7561,45.2579 46.5,50.5C 50.5146,62.5239 57.3479,64.5239 67,56.5C 70.5696,45.8945 66.7362,40.2279 55.5,39.5 Z"/></g>
</svg>
