<?xml version="1.0" encoding="UTF-8"?>
<!DOCTYPE svg PUBLIC "-//W3C//DTD SVG 1.1//EN" "http://www.w3.org/Graphics/SVG/1.1/DTD/svg11.dtd">
<svg xmlns="http://www.w3.org/2000/svg" version="1.1" width="117px" height="117px" style="shape-rendering:geometricPrecision; text-rendering:geometricPrecision; image-rendering:optimizeQuality; fill-rule:evenodd; clip-rule:evenodd" xmlns:xlink="http://www.w3.org/1999/xlink">
<g><path style="opacity:0.899" fill="#0495ff" d="M 50.5,7.5 C 52.5273,7.33788 54.5273,7.50454 56.5,8C 61,12.5 65.5,17 70,21.5C 70.6667,23.5 70.6667,25.5 70,27.5C 65.5,32 61,36.5 56.5,41C 50.4321,42.1523 48.2655,39.6523 50,33.5C 51.1667,32.3333 52.3333,31.1667 53.5,30C 35.907,33.268 26.2404,43.9347 24.5,62C 27.9402,85.0515 41.2735,95.7182 64.5,94C 86.1783,86.4767 94.0116,71.6434 88,49.5C 86.7441,45.9837 84.7441,42.9837 82,40.5C 80.2655,34.3477 82.4321,31.8477 88.5,33C 98.4498,43.9566 101.95,56.7899 99,71.5C 93.0911,92.0704 79.4244,103.07 58,104.5C 31.7925,102.293 17.6259,88.1259 15.5,62C 17.4498,38.2753 30.1165,24.1086 53.5,19.5C 49.1216,16.0828 48.1216,12.0828 50.5,7.5 Z"/></g>
</svg>
