<?xml version="1.0" encoding="UTF-8"?>
<!DOCTYPE svg PUBLIC "-//W3C//DTD SVG 1.1//EN" "http://www.w3.org/Graphics/SVG/1.1/DTD/svg11.dtd">
<svg xmlns="http://www.w3.org/2000/svg" version="1.1" width="84px" height="84px" style="shape-rendering:geometricPrecision; text-rendering:geometricPrecision; image-rendering:optimizeQuality; fill-rule:evenodd; clip-rule:evenodd" xmlns:xlink="http://www.w3.org/1999/xlink">
<g><path style="opacity:0.9" fill="#000000" d="M 25.5,7.5 C 35.1724,7.33353 44.8391,7.5002 54.5,8C 65.9572,12.7962 70.4572,21.2962 68,33.5C 66.0521,40.5705 61.5521,45.0705 54.5,47C 46.8406,47.4997 39.1739,47.6664 31.5,47.5C 31.5,50.1667 31.5,52.8333 31.5,55.5C 35.8461,55.3343 40.1794,55.501 44.5,56C 45.8333,58 45.8333,60 44.5,62C 40.1794,62.499 35.8461,62.6657 31.5,62.5C 31.6653,66.1817 31.4986,69.8484 31,73.5C 28.9592,74.4231 26.7925,74.7564 24.5,74.5C 24.5,70.5 24.5,66.5 24.5,62.5C 21.4816,62.6646 18.4816,62.498 15.5,62C 13.3985,60.2672 13.0652,58.2672 14.5,56C 17.8168,55.5017 21.1501,55.335 24.5,55.5C 24.5,52.8333 24.5,50.1667 24.5,47.5C 21.1501,47.665 17.8168,47.4983 14.5,47C 13.0652,44.7328 13.3985,42.7328 15.5,41C 18.4816,40.502 21.4816,40.3354 24.5,40.5C 24.1901,29.4187 24.5234,18.4187 25.5,7.5 Z M 31.5,14.5 C 38.175,14.3337 44.8417,14.5004 51.5,15C 61.7586,19.7729 63.9252,26.9395 58,36.5C 56.4207,38.0412 54.5873,39.2078 52.5,40C 45.5079,40.4996 38.5079,40.6663 31.5,40.5C 31.5,31.8333 31.5,23.1667 31.5,14.5 Z"/></g>
</svg>
