<svg width="20" height="20" viewBox="0 0 20 20" fill="none" xmlns="http://www.w3.org/2000/svg">
<g id="settings_k5mpx6n84ssf 1" clip-path="url(#clip0_2406_23986)">
<g id="Group">
<g id="Group_2">
<path id="Vector" d="M18.9763 7.90068L17.5725 7.66253C17.4263 7.19043 17.2382 6.73503 17.0085 6.30052L17.8357 5.14323C18.1866 4.65023 18.1323 3.97758 17.702 3.55143L16.457 2.3064C16.223 2.07243 15.9138 1.94291 15.5838 1.94291C15.3247 1.94291 15.0782 2.02229 14.8693 2.1727L13.7079 2.99994C13.2567 2.76179 12.7845 2.56543 12.2957 2.4192L12.0618 1.03212C11.9615 0.434671 11.4476 0.000164032 10.8418 0.000164032H9.08288C8.47707 0.000164032 7.96318 0.434671 7.86291 1.03212L7.62059 2.45262C7.15266 2.59885 6.69726 2.79104 6.26276 3.025L5.11382 2.19777C4.90492 2.04736 4.65424 1.96798 4.39521 1.96798C4.06515 1.96798 3.7518 2.0975 3.52202 2.33146L2.27281 3.57649C1.84666 4.00265 1.78817 4.6753 2.13911 5.1683L2.9747 6.3423C2.74492 6.78099 2.56109 7.23638 2.41904 7.70849L1.03196 7.94246C0.434507 8.04273 0 8.55662 0 9.16242V10.9213C0 11.5271 0.434507 12.041 1.03196 12.1413L2.45246 12.3836C2.59869 12.8516 2.79087 13.307 3.02484 13.7415L2.20178 14.8862C1.85083 15.3792 1.90515 16.0519 2.33548 16.478L3.58051 17.7231C3.81447 17.957 4.12364 18.0865 4.4537 18.0865C4.71273 18.0865 4.95923 18.0072 5.16813 17.8567L6.34214 17.0212C6.76411 17.2426 7.20697 17.4222 7.66237 17.5643L7.89634 18.9681C7.99661 19.5655 8.5105 20 9.1163 20H10.8794C11.4852 20 11.9991 19.5655 12.0994 18.9681L12.3375 17.5643C12.8096 17.4181 13.265 17.2301 13.6995 17.0003L14.8568 17.8275C15.0657 17.9779 15.3164 18.0573 15.5754 18.0573C15.9055 18.0573 16.2146 17.9278 16.4486 17.6938L17.6936 16.4488C18.1198 16.0226 18.1783 15.35 17.8273 14.857L17.0001 13.6955C17.2299 13.2568 17.4221 12.8014 17.5641 12.3335L18.9679 12.0995C19.5654 11.9993 19.9999 11.4854 19.9999 10.8796V9.12064C20.0082 8.51484 19.5737 8.00095 18.9763 7.90068ZM18.8802 10.8796C18.8802 10.9339 18.8426 10.9798 18.7883 10.9882L17.0335 11.2806C16.8121 11.3182 16.6366 11.4812 16.5823 11.6943C16.4235 12.3084 16.1812 12.8975 15.8553 13.4448C15.7425 13.637 15.7509 13.8752 15.8804 14.059L16.9124 15.5129C16.9416 15.5547 16.9374 15.6174 16.8998 15.655L15.6548 16.9C15.6256 16.9292 15.5963 16.9334 15.5754 16.9334C15.5504 16.9334 15.5295 16.9251 15.5127 16.9125L14.063 15.8806C13.8833 15.7511 13.641 15.7427 13.4488 15.8555C12.9015 16.1814 12.3124 16.4237 11.6983 16.5825C11.481 16.6368 11.3181 16.8164 11.2847 17.0337L10.988 18.7884C10.9797 18.8427 10.9337 18.8803 10.8794 18.8803H9.12048C9.06616 18.8803 9.02021 18.8427 9.01185 18.7884L8.71939 17.0337C8.68179 16.8123 8.51885 16.6368 8.30578 16.5825C7.70833 16.4279 7.13177 16.1897 6.59281 15.8806C6.50508 15.8304 6.40481 15.8054 6.30871 15.8054C6.19591 15.8054 6.07893 15.8388 5.98283 15.9098L4.52055 16.9501C4.49966 16.9627 4.47877 16.971 4.45788 16.971C4.44117 16.971 4.40774 16.9668 4.3785 16.9376L3.13347 15.6926C3.09587 15.655 3.09169 15.5965 3.12093 15.5505L4.14871 14.1091C4.27823 13.9253 4.28658 13.683 4.17378 13.4908C3.8479 12.9476 3.59722 12.3586 3.43846 11.7444C3.37997 11.5313 3.20449 11.3684 2.98724 11.3308L1.21996 11.03C1.16565 11.0216 1.12805 10.9757 1.12805 10.9213V9.16242C1.12805 9.10811 1.16565 9.06215 1.21996 9.05379L2.96217 8.76134C3.1836 8.72374 3.36325 8.5608 3.41757 8.34354C3.57215 7.72938 3.8103 7.13611 4.132 6.5888C4.2448 6.39661 4.23227 6.15847 4.10275 5.97882L3.06244 4.51653C3.0332 4.47475 3.03737 4.41209 3.07498 4.37448L4.32001 3.12945C4.34925 3.10021 4.3785 3.09603 4.39939 3.09603C4.42446 3.09603 4.44535 3.10439 4.46206 3.11692L5.90345 4.1447C6.08728 4.27421 6.3296 4.28257 6.52179 4.16976C7.06492 3.84388 7.65402 3.59321 8.26817 3.43444C8.48125 3.37595 8.64419 3.20048 8.68179 2.98322L8.9826 1.21595C8.99096 1.16164 9.03692 1.12403 9.09123 1.12403H10.8502C10.9045 1.12403 10.9504 1.16164 10.9588 1.21595L11.2512 2.95816C11.2888 3.17959 11.4518 3.35924 11.669 3.41355C12.2999 3.57232 12.9015 3.81882 13.4614 4.14887C13.6536 4.26168 13.8917 4.25332 14.0755 4.12381L15.5169 3.08767C15.5378 3.07514 15.5587 3.06678 15.5796 3.06678C15.5963 3.06678 15.6297 3.07096 15.659 3.10021L16.904 4.34524C16.9416 4.38284 16.9458 4.44133 16.9165 4.48729L15.8846 5.93704C15.7551 6.11669 15.7467 6.35901 15.8595 6.5512C16.1854 7.09851 16.4277 7.6876 16.5865 8.30176C16.6408 8.51902 16.8204 8.68196 17.0377 8.71538L18.7924 9.01201C18.8468 9.02037 18.8844 9.06633 18.8844 9.12064V10.8796H18.8802Z" fill="#0496FF"/>
<path id="Vector_2" d="M10.002 5.68206C7.6206 5.68206 5.6862 7.61645 5.6862 9.99789C5.6862 12.3793 7.6206 14.3137 10.002 14.3137C12.3835 14.3137 14.3179 12.3793 14.3179 9.99789C14.3179 7.61645 12.3835 5.68206 10.002 5.68206ZM10.002 13.1857C8.24311 13.1857 6.81425 11.7568 6.81425 9.99789C6.81425 8.23897 8.24311 6.81011 10.002 6.81011C11.7609 6.81011 13.1898 8.23897 13.1898 9.99789C13.1898 11.7568 11.7609 13.1857 10.002 13.1857Z" fill="#0496FF"/>
</g>
</g>
</g>
<defs>
<clipPath id="clip0_2406_23986">
<rect width="20" height="20" fill="white"/>
</clipPath>
</defs>
</svg>
