<?xml version="1.0" encoding="UTF-8"?>
<!DOCTYPE svg PUBLIC "-//W3C//DTD SVG 1.1//EN" "http://www.w3.org/Graphics/SVG/1.1/DTD/svg11.dtd">
<svg xmlns="http://www.w3.org/2000/svg" version="1.1" width="84px" height="84px" style="shape-rendering:geometricPrecision; text-rendering:geometricPrecision; image-rendering:optimizeQuality; fill-rule:evenodd; clip-rule:evenodd" xmlns:xlink="http://www.w3.org/1999/xlink">
<g><path style="opacity:0.881" fill="#000000" d="M 14.5,1.5 C 15.8221,1.33003 16.9887,1.66337 18,2.5C 19.4012,9.40153 23.5679,13.4015 30.5,14.5C 31.5896,15.3914 31.5896,16.3914 30.5,17.5C 27.8845,18.7616 25.2179,19.9282 22.5,21C 20.3975,24.512 18.3975,28.012 16.5,31.5C 14.0801,28.1099 11.7468,24.6099 9.5,21C 6.97801,19.6591 4.31135,18.8257 1.5,18.5C 1.28649,16.8561 1.61983,15.3561 2.5,14C 9.39747,12.6027 13.3975,8.43607 14.5,1.5 Z"/></g>
<g><path style="opacity:0.863" fill="#000000" d="M 47.5,17.5 C 48.9778,17.238 50.3112,17.5713 51.5,18.5C 53.4609,26.5894 57.1276,33.7561 62.5,40C 67.8099,43.1059 73.4766,45.4392 79.5,47C 81.497,48.1531 81.8304,49.6531 80.5,51.5C 72.4106,53.4609 65.2439,57.1276 59,62.5C 55.8853,67.844 53.5519,73.5106 52,79.5C 50.8469,81.497 49.3469,81.8304 47.5,80.5C 45.5236,72.3789 41.857,65.2122 36.5,59C 31.156,55.8853 25.4894,53.5519 19.5,52C 16.8333,50.3333 16.8333,48.6667 19.5,47C 36.1744,44.1584 45.5078,34.3251 47.5,17.5 Z M 49.5,35.5 C 52.5899,41.7583 57.2566,46.5916 63.5,50C 57,52.5 52.5,57 50,63.5C 46.7765,57.2767 41.9432,52.7767 35.5,50C 41.7152,46.6188 46.3819,41.7855 49.5,35.5 Z"/></g>
</svg>
