<?xml version="1.0" encoding="UTF-8"?>
<!DOCTYPE svg PUBLIC "-//W3C//DTD SVG 1.1//EN" "http://www.w3.org/Graphics/SVG/1.1/DTD/svg11.dtd">
<svg xmlns="http://www.w3.org/2000/svg" version="1.1" width="201px" height="200px" style="shape-rendering:geometricPrecision; text-rendering:geometricPrecision; image-rendering:optimizeQuality; fill-rule:evenodd; clip-rule:evenodd" xmlns:xlink="http://www.w3.org/1999/xlink">
<g><path style="opacity:0.995" fill="#e4e6e5" d="M 41.5,-0.5 C 80.8333,-0.5 120.167,-0.5 159.5,-0.5C 169.51,0.337204 178.843,3.50387 187.5,9C 195.846,17.9245 200.179,28.4245 200.5,40.5C 200.5,79.8333 200.5,119.167 200.5,158.5C 199.663,168.51 196.496,177.843 191,186.5C 182.347,194.581 172.181,198.915 160.5,199.5C 120.833,199.5 81.1667,199.5 41.5,199.5C 29.57,198.797 19.07,194.463 10,186.5C 4.23026,178.098 1.23026,168.765 1,158.5C 0.333333,119.167 0.333333,79.8333 1,40.5C 2.01883,14.3152 15.5188,0.64851 41.5,-0.5 Z"/></g>
<g><path style="opacity:1" fill="#090909" d="M 131.5,67.5 C 126.047,77.7374 117.38,83.5707 105.5,85C 95.0152,86.1334 84.6819,85.4667 74.5,83C 68.9812,80.4087 63.6479,77.5753 58.5,74.5C 56.5286,73.1769 54.5286,71.8435 52.5,70.5C 57.69,65.7232 63.69,63.5565 70.5,64C 76.4329,68.1327 82.7662,71.466 89.5,74C 96.2909,74.9614 102.624,73.6281 108.5,70C 112.533,66.8324 113.367,62.9991 111,58.5C 105.579,53.9141 99.7453,49.9141 93.5,46.5C 96.7272,44.1352 100.227,42.4686 104,41.5C 111.259,44.0737 118.092,47.5737 124.5,52C 129.695,55.8894 132.029,61.0561 131.5,67.5 Z"/></g>
<g><path style="opacity:1" fill="#080808" d="M 86.5,49.5 C 88.5273,49.3379 90.5273,49.5045 92.5,50C 97.5,53 102.5,56 107.5,59C 109.42,65.121 107.087,68.7877 100.5,70C 94.5743,71.1102 88.9077,70.4436 83.5,68C 82.3651,63.2523 82.1985,58.419 83,53.5C 84.3756,52.2949 85.5423,50.9616 86.5,49.5 Z"/></g>
<g><path style="opacity:1" fill="#090a09" d="M 155.5,85.5 C 155.249,87.1703 154.582,88.6703 153.5,90C 147.669,93.0812 142.002,96.4145 136.5,100C 129.304,106.255 126.47,114.089 128,123.5C 129.732,128.617 133.232,130.45 138.5,129C 144.258,126.233 149.758,123.066 155,119.5C 155.81,124.257 155.476,128.924 154,133.5C 146.82,137.669 139.653,141.669 132.5,145.5C 118.57,146.74 111.903,140.24 112.5,126C 114.629,110.409 121.296,97.0755 132.5,86C 140.085,81.2913 147.585,76.458 155,71.5C 155.499,76.1548 155.666,80.8215 155.5,85.5 Z"/></g>
<g><path style="opacity:1" fill="#090909" d="M 153.5,69.5 C 133.799,77.7012 119.965,91.7012 112,111.5C 109.196,120.082 108.863,128.748 111,137.5C 114.797,145.976 121.297,150.309 130.5,150.5C 124.194,153.988 117.86,157.488 111.5,161C 109.833,161.667 108.167,161.667 106.5,161C 105.79,152.532 105.124,144.032 104.5,135.5C 100.449,113.959 88.4489,98.7919 68.5,90C 58.1035,88.5294 51.1035,92.696 47.5,102.5C 46.3431,94.0099 46.1764,85.3433 47,76.5C 50.0896,74.0059 53.2563,74.0059 56.5,76.5C 77.6042,91.5507 99.9375,93.384 123.5,82C 128.104,79.2319 131.438,75.3985 133.5,70.5C 136.187,62.0239 133.853,55.1906 126.5,50C 134.813,53.9927 143.146,58.326 151.5,63C 153.016,64.897 153.683,67.0637 153.5,69.5 Z"/></g>
<g><path style="opacity:1" fill="#cecfcf" d="M 131.5,67.5 C 131.285,69.1788 131.952,70.1788 133.5,70.5C 131.438,75.3985 128.104,79.2319 123.5,82C 99.9375,93.384 77.6042,91.5507 56.5,76.5C 57.5,76.1667 58.1667,75.5 58.5,74.5C 63.6479,77.5753 68.9812,80.4087 74.5,83C 84.6819,85.4667 95.0152,86.1334 105.5,85C 117.38,83.5707 126.047,77.7374 131.5,67.5 Z"/></g>
<g><path style="opacity:1" fill="#d5d6d6" d="M 153.5,69.5 C 154.209,70.404 155.209,70.7373 156.5,70.5C 156.821,75.6946 156.487,80.6946 155.5,85.5C 155.666,80.8215 155.499,76.1548 155,71.5C 147.585,76.458 140.085,81.2913 132.5,86C 121.296,97.0755 114.629,110.409 112.5,126C 111.903,140.24 118.57,146.74 132.5,145.5C 132.881,146.931 133.881,147.764 135.5,148C 133.97,149.12 132.303,149.954 130.5,150.5C 121.297,150.309 114.797,145.976 111,137.5C 108.863,128.748 109.196,120.082 112,111.5C 119.965,91.7012 133.799,77.7012 153.5,69.5 Z"/></g>
<g><path style="opacity:1" fill="#d0d0d0" d="M 104.5,135.5 C 103.5,135.5 102.5,135.5 101.5,135.5C 97.8286,117.669 88.162,104.169 72.5,95C 63.2184,91.2831 55.885,93.4498 50.5,101.5C 50.5654,101.062 50.3988,100.728 50,100.5C 49.2917,101.381 48.4584,102.047 47.5,102.5C 51.1035,92.696 58.1035,88.5294 68.5,90C 88.4489,98.7919 100.449,113.959 104.5,135.5 Z"/></g>
<g><path style="opacity:1" fill="#080808" d="M 101.5,135.5 C 101.666,143.84 101.5,152.173 101,160.5C 96.7485,157.958 92.5819,155.291 88.5,152.5C 87.6986,144.882 87.1986,137.216 87,129.5C 84.2681,120.101 78.2681,114.101 69,111.5C 65.9666,111.519 63.6333,112.852 62,115.5C 60.9045,122.419 60.0712,129.419 59.5,136.5C 50.0965,133.331 46.7631,126.831 49.5,117C 49.5809,111.799 49.9143,106.632 50.5,101.5C 55.885,93.4498 63.2184,91.2831 72.5,95C 88.162,104.169 97.8286,117.669 101.5,135.5 Z"/></g>
<g><path style="opacity:1" fill="#0b0b0b" d="M 140.5,100.5 C 146.376,101.19 151.21,103.856 155,108.5C 155.667,110.5 155.667,112.5 155,114.5C 149.215,119.644 142.715,123.644 135.5,126.5C 133.234,126.069 131.734,124.736 131,122.5C 129.874,116.547 131.207,111.214 135,106.5C 137.04,104.63 138.873,102.63 140.5,100.5 Z"/></g>
<g><path style="opacity:1" fill="#0d0e0e" d="M 66.5,114.5 C 74.7323,115.22 80.2323,119.553 83,127.5C 83.6667,130.5 83.6667,133.5 83,136.5C 78.7913,140.196 73.9579,142.029 68.5,142C 66.6217,140.457 65.1217,138.624 64,136.5C 63.3333,130.5 63.3333,124.5 64,118.5C 64.6622,117.016 65.4955,115.683 66.5,114.5 Z"/></g>
</svg>
