<svg width="28" height="34" viewBox="0 0 28 34" fill="none" xmlns="http://www.w3.org/2000/svg">
<path d="M0.666992 28.6667V25.8889H4.00033V13.5555C4.00033 11.2315 4.69014 9.15509 6.06978 7.32637C7.4494 5.49768 9.25958 4.33333 11.5003 3.83333V2.83333C11.5003 2.13888 11.7434 1.54861 12.2295 1.06249C12.7156 0.576384 13.3059 0.333328 14.0003 0.333328C14.6948 0.333328 15.285 0.576384 15.7712 1.06249C16.2573 1.54861 16.5003 2.13888 16.5003 2.83333V3.83333C18.7411 4.33333 20.5513 5.49768 21.9309 7.32637C23.3105 9.15509 24.0003 11.2315 24.0003 13.5555V25.8889H27.3337V28.6667H0.666992ZM14.0003 33.6667C13.0837 33.6667 12.2989 33.3403 11.6462 32.6875C10.9934 32.0347 10.667 31.25 10.667 30.3333H17.3337C17.3337 31.25 17.0073 32.0347 16.3545 32.6875C15.7017 33.3403 14.917 33.6667 14.0003 33.6667ZM6.77808 25.8889H21.2226V13.5555C21.2226 11.5555 20.5189 9.85183 19.1115 8.44441C17.704 7.03702 16.0003 6.33333 14.0003 6.33333C12.0003 6.33333 10.2966 7.03702 8.8892 8.44441C7.48178 9.85183 6.77808 11.5555 6.77808 13.5555V25.8889Z" fill="#0496FF"/>
</svg>
